<svg xmlns="http://www.w3.org/2000/svg" xmlns:xlink="http://www.w3.org/1999/xlink" width="500" zoomAndPan="magnify" viewBox="0 0 375 374.999991" height="500" preserveAspectRatio="xMidYMid meet" version="1.0"><defs><g/><clipPath id="14ad7798dc"><path d="M 107.183594 96 L 267.683594 96 L 267.683594 290.699219 L 107.183594 290.699219 Z M 107.183594 96 " clip-rule="nonzero"/></clipPath><clipPath id="361cb3cb43"><path d="M 192 24.449219 L 211 24.449219 L 211 43 L 192 43 Z M 192 24.449219 " clip-rule="nonzero"/></clipPath></defs><rect x="-37.5" width="450" fill="#ffffff" y="-37.499999" height="449.999989" fill-opacity="1"/><rect x="-37.5" width="450" fill="#ffffff" y="-37.499999" height="449.999989" fill-opacity="1"/><g clip-path="url(#14ad7798dc)"><path fill="#8c52ff" d="M 260.738281 281.136719 C 259.039062 284.164062 255.953125 285.972656 252.484375 285.972656 L 122.539062 285.972656 C 119.070312 285.972656 115.984375 284.164062 114.28125 281.136719 C 112.582031 278.105469 112.652344 274.523438 114.460938 271.566406 L 145.695312 220.503906 L 163.542969 191.339844 C 167.144531 185.445312 169.046875 178.683594 169.046875 171.78125 L 169.046875 114.757812 C 169.167969 114.792969 169.296875 114.832031 169.421875 114.875 C 169.539062 114.902344 169.648438 114.941406 169.769531 114.980469 C 170.066406 115.066406 170.378906 115.15625 170.691406 115.242188 C 170.761719 115.265625 170.824219 115.285156 170.902344 115.304688 C 171.285156 115.40625 171.679688 115.507812 172.078125 115.601562 C 172.179688 115.628906 172.277344 115.648438 172.378906 115.675781 C 172.683594 115.746094 173 115.8125 173.320312 115.882812 C 173.453125 115.910156 173.585938 115.933594 173.722656 115.964844 C 174.027344 116.03125 174.339844 116.085938 174.65625 116.144531 C 174.777344 116.171875 174.898438 116.195312 175.027344 116.214844 C 175.460938 116.292969 175.898438 116.367188 176.351562 116.4375 C 176.371094 116.445312 176.394531 116.445312 176.421875 116.453125 C 176.839844 116.511719 177.273438 116.570312 177.707031 116.628906 C 177.847656 116.648438 177.988281 116.667969 178.128906 116.6875 C 178.457031 116.726562 178.796875 116.769531 179.132812 116.808594 C 179.277344 116.820312 179.433594 116.839844 179.585938 116.851562 C 179.953125 116.890625 180.332031 116.929688 180.710938 116.960938 C 180.8125 116.972656 180.914062 116.980469 181.023438 116.992188 C 181.5 117.027344 181.984375 117.070312 182.476562 117.101562 C 182.597656 117.105469 182.71875 117.113281 182.832031 117.117188 C 183.207031 117.136719 183.582031 117.164062 183.964844 117.175781 C 184.128906 117.183594 184.289062 117.1875 184.457031 117.195312 C 184.8125 117.214844 185.167969 117.21875 185.53125 117.234375 C 185.683594 117.234375 185.835938 117.242188 185.988281 117.246094 C 186.5 117.253906 187.003906 117.261719 187.511719 117.261719 C 188.019531 117.261719 188.523438 117.253906 189.035156 117.246094 C 189.183594 117.242188 189.335938 117.234375 189.492188 117.234375 C 189.855469 117.21875 190.210938 117.214844 190.566406 117.195312 C 190.734375 117.1875 190.894531 117.183594 191.058594 117.175781 C 191.441406 117.164062 191.816406 117.136719 192.191406 117.117188 C 192.304688 117.113281 192.425781 117.105469 192.546875 117.101562 C 193.039062 117.070312 193.519531 117.027344 194 116.992188 C 194.105469 116.980469 194.210938 116.972656 194.3125 116.960938 C 194.691406 116.929688 195.070312 116.890625 195.4375 116.851562 C 195.589844 116.839844 195.742188 116.820312 195.890625 116.808594 C 196.226562 116.769531 196.566406 116.726562 196.894531 116.6875 C 197.039062 116.667969 197.175781 116.648438 197.316406 116.628906 C 197.75 116.570312 198.183594 116.511719 198.609375 116.453125 C 198.628906 116.445312 198.652344 116.445312 198.671875 116.4375 C 199.125 116.367188 199.5625 116.292969 199.996094 116.214844 C 200.125 116.195312 200.246094 116.171875 200.367188 116.144531 C 200.683594 116.085938 200.996094 116.03125 201.300781 115.964844 C 201.433594 115.933594 201.566406 115.910156 201.703125 115.882812 C 202.019531 115.8125 202.339844 115.746094 202.648438 115.675781 C 202.746094 115.648438 202.839844 115.628906 202.9375 115.601562 C 203.347656 115.507812 203.738281 115.40625 204.128906 115.304688 C 204.191406 115.285156 204.261719 115.265625 204.332031 115.246094 C 204.644531 115.15625 204.953125 115.066406 205.261719 114.980469 C 205.375 114.941406 205.484375 114.910156 205.597656 114.875 C 205.726562 114.832031 205.851562 114.792969 205.976562 114.757812 L 205.976562 171.78125 C 205.976562 178.683594 207.878906 185.445312 211.484375 191.339844 L 241.265625 240.019531 L 260.5625 271.566406 C 262.367188 274.523438 262.4375 278.105469 260.738281 281.136719 Z M 187.511719 101.34375 C 202.109375 101.34375 209.753906 105.367188 209.753906 106.753906 C 209.753906 106.898438 209.328125 107.707031 207.363281 108.714844 C 203.191406 110.839844 195.589844 112.164062 187.511719 112.164062 C 184.480469 112.164062 181.519531 111.980469 178.78125 111.636719 C 174.210938 111.058594 170.265625 110.046875 167.660156 108.714844 L 167.65625 108.707031 C 165.691406 107.707031 165.265625 106.898438 165.265625 106.753906 C 165.265625 105.367188 172.914062 101.34375 187.511719 101.34375 Z M 264.90625 268.902344 L 215.824219 188.679688 C 212.710938 183.59375 211.066406 177.75 211.066406 171.78125 L 211.066406 112.453125 C 214.148438 110.464844 214.851562 108.300781 214.851562 106.753906 C 214.851562 99.535156 200.679688 96.25 187.511719 96.25 C 174.347656 96.25 160.171875 99.535156 160.171875 106.753906 C 160.171875 108.300781 160.875 110.464844 163.953125 112.453125 L 163.953125 171.78125 C 163.953125 177.75 162.3125 183.59375 159.199219 188.679688 L 110.121094 268.902344 C 107.332031 273.460938 107.230469 278.96875 109.839844 283.632812 C 112.449219 288.285156 117.199219 291.066406 122.539062 291.066406 L 252.484375 291.066406 C 257.824219 291.066406 262.574219 288.285156 265.183594 283.632812 C 267.792969 278.96875 267.691406 273.460938 264.90625 268.902344 " fill-opacity="1" fill-rule="nonzero"/></g><path fill="#8c52ff" d="M 241.523438 269.605469 C 241.523438 270.335938 240.933594 270.929688 240.199219 270.929688 C 239.46875 270.929688 238.871094 270.335938 238.871094 269.605469 C 238.871094 268.867188 239.46875 268.277344 240.199219 268.277344 C 240.933594 268.277344 241.523438 268.867188 241.523438 269.605469 " fill-opacity="1" fill-rule="nonzero"/><path fill="#8c52ff" d="M 209.136719 263.722656 C 208.679688 263.722656 208.3125 264.09375 208.3125 264.542969 C 208.3125 265.003906 208.679688 265.371094 209.136719 265.371094 C 209.589844 265.371094 209.960938 265.003906 209.960938 264.542969 C 209.960938 264.09375 209.589844 263.722656 209.136719 263.722656 Z M 227.378906 255.726562 C 226.785156 255.726562 226.304688 256.203125 226.304688 256.800781 C 226.304688 257.394531 226.785156 257.878906 227.378906 257.878906 C 227.972656 257.878906 228.453125 257.394531 228.453125 256.800781 C 228.453125 256.203125 227.972656 255.726562 227.378906 255.726562 Z M 227.378906 255.726562 C 226.785156 255.726562 226.304688 256.203125 226.304688 256.800781 C 226.304688 257.394531 226.785156 257.878906 227.378906 257.878906 C 227.972656 257.878906 228.453125 257.394531 228.453125 256.800781 C 228.453125 256.203125 227.972656 255.726562 227.378906 255.726562 Z M 209.136719 263.722656 C 208.679688 263.722656 208.3125 264.09375 208.3125 264.542969 C 208.3125 265.003906 208.679688 265.371094 209.136719 265.371094 C 209.589844 265.371094 209.960938 265.003906 209.960938 264.542969 C 209.960938 264.09375 209.589844 263.722656 209.136719 263.722656 Z M 162.28125 267.207031 C 161.6875 267.207031 161.207031 267.683594 161.207031 268.28125 C 161.207031 268.871094 161.6875 269.355469 162.28125 269.355469 C 162.875 269.355469 163.355469 268.871094 163.355469 268.28125 C 163.355469 267.683594 162.875 267.207031 162.28125 267.207031 Z M 191.816406 272.75 C 191.453125 272.75 191.160156 273.042969 191.160156 273.414062 C 191.160156 273.777344 191.453125 274.066406 191.816406 274.066406 C 192.179688 274.066406 192.476562 273.777344 192.476562 273.414062 C 192.476562 273.042969 192.179688 272.75 191.816406 272.75 Z M 209.136719 263.722656 C 208.679688 263.722656 208.3125 264.09375 208.3125 264.542969 C 208.3125 265.003906 208.679688 265.371094 209.136719 265.371094 C 209.589844 265.371094 209.960938 265.003906 209.960938 264.542969 C 209.960938 264.09375 209.589844 263.722656 209.136719 263.722656 Z M 227.378906 255.726562 C 226.785156 255.726562 226.304688 256.203125 226.304688 256.800781 C 226.304688 257.394531 226.785156 257.878906 227.378906 257.878906 C 227.972656 257.878906 228.453125 257.394531 228.453125 256.800781 C 228.453125 256.203125 227.972656 255.726562 227.378906 255.726562 Z M 227.378906 255.726562 C 226.785156 255.726562 226.304688 256.203125 226.304688 256.800781 C 226.304688 257.394531 226.785156 257.878906 227.378906 257.878906 C 227.972656 257.878906 228.453125 257.394531 228.453125 256.800781 C 228.453125 256.203125 227.972656 255.726562 227.378906 255.726562 Z M 209.136719 263.722656 C 208.679688 263.722656 208.3125 264.09375 208.3125 264.542969 C 208.3125 265.003906 208.679688 265.371094 209.136719 265.371094 C 209.589844 265.371094 209.960938 265.003906 209.960938 264.542969 C 209.960938 264.09375 209.589844 263.722656 209.136719 263.722656 Z M 191.816406 272.75 C 191.453125 272.75 191.160156 273.042969 191.160156 273.414062 C 191.160156 273.777344 191.453125 274.066406 191.816406 274.066406 C 192.179688 274.066406 192.476562 273.777344 192.476562 273.414062 C 192.476562 273.042969 192.179688 272.75 191.816406 272.75 Z M 162.28125 267.207031 C 161.6875 267.207031 161.207031 267.683594 161.207031 268.28125 C 161.207031 268.871094 161.6875 269.355469 162.28125 269.355469 C 162.875 269.355469 163.355469 268.871094 163.355469 268.28125 C 163.355469 267.683594 162.875 267.207031 162.28125 267.207031 Z M 162.28125 267.207031 C 161.6875 267.207031 161.207031 267.683594 161.207031 268.28125 C 161.207031 268.871094 161.6875 269.355469 162.28125 269.355469 C 162.875 269.355469 163.355469 268.871094 163.355469 268.28125 C 163.355469 267.683594 162.875 267.207031 162.28125 267.207031 Z M 161.804688 235.480469 C 161.34375 235.480469 160.976562 235.847656 160.976562 236.300781 C 160.976562 236.761719 161.34375 237.128906 161.804688 237.128906 C 162.253906 237.128906 162.625 236.761719 162.625 236.300781 C 162.625 235.847656 162.253906 235.480469 161.804688 235.480469 Z M 169.417969 249.664062 C 168.683594 249.664062 168.085938 250.257812 168.085938 250.988281 C 168.085938 251.71875 168.683594 252.320312 169.417969 252.320312 C 170.144531 252.320312 170.742188 251.71875 170.742188 250.988281 C 170.742188 250.257812 170.144531 249.664062 169.417969 249.664062 Z M 191.816406 272.75 C 191.453125 272.75 191.160156 273.042969 191.160156 273.414062 C 191.160156 273.777344 191.453125 274.066406 191.816406 274.066406 C 192.179688 274.066406 192.476562 273.777344 192.476562 273.414062 C 192.476562 273.042969 192.179688 272.75 191.816406 272.75 Z M 209.136719 263.722656 C 208.679688 263.722656 208.3125 264.09375 208.3125 264.542969 C 208.3125 265.003906 208.679688 265.371094 209.136719 265.371094 C 209.589844 265.371094 209.960938 265.003906 209.960938 264.542969 C 209.960938 264.09375 209.589844 263.722656 209.136719 263.722656 Z M 227.378906 255.726562 C 226.785156 255.726562 226.304688 256.203125 226.304688 256.800781 C 226.304688 257.394531 226.785156 257.878906 227.378906 257.878906 C 227.972656 257.878906 228.453125 257.394531 228.453125 256.800781 C 228.453125 256.203125 227.972656 255.726562 227.378906 255.726562 Z M 227.378906 255.726562 C 226.785156 255.726562 226.304688 256.203125 226.304688 256.800781 C 226.304688 257.394531 226.785156 257.878906 227.378906 257.878906 C 227.972656 257.878906 228.453125 257.394531 228.453125 256.800781 C 228.453125 256.203125 227.972656 255.726562 227.378906 255.726562 Z M 209.136719 263.722656 C 208.679688 263.722656 208.3125 264.09375 208.3125 264.542969 C 208.3125 265.003906 208.679688 265.371094 209.136719 265.371094 C 209.589844 265.371094 209.960938 265.003906 209.960938 264.542969 C 209.960938 264.09375 209.589844 263.722656 209.136719 263.722656 Z M 191.816406 272.75 C 191.453125 272.75 191.160156 273.042969 191.160156 273.414062 C 191.160156 273.777344 191.453125 274.066406 191.816406 274.066406 C 192.179688 274.066406 192.476562 273.777344 192.476562 273.414062 C 192.476562 273.042969 192.179688 272.75 191.816406 272.75 Z M 169.417969 249.664062 C 168.683594 249.664062 168.085938 250.257812 168.085938 250.988281 C 168.085938 251.71875 168.683594 252.320312 169.417969 252.320312 C 170.144531 252.320312 170.742188 251.71875 170.742188 250.988281 C 170.742188 250.257812 170.144531 249.664062 169.417969 249.664062 Z M 162.28125 267.207031 C 161.6875 267.207031 161.207031 267.683594 161.207031 268.28125 C 161.207031 268.871094 161.6875 269.355469 162.28125 269.355469 C 162.875 269.355469 163.355469 268.871094 163.355469 268.28125 C 163.355469 267.683594 162.875 267.207031 162.28125 267.207031 Z M 161.804688 235.480469 C 161.34375 235.480469 160.976562 235.847656 160.976562 236.300781 C 160.976562 236.761719 161.34375 237.128906 161.804688 237.128906 C 162.253906 237.128906 162.625 236.761719 162.625 236.300781 C 162.625 235.847656 162.253906 235.480469 161.804688 235.480469 Z M 143.664062 259.1875 C 143.214844 259.1875 142.84375 259.558594 142.84375 260.011719 C 142.84375 260.46875 143.214844 260.835938 143.664062 260.835938 C 144.125 260.835938 144.492188 260.46875 144.492188 260.011719 C 144.492188 259.558594 144.125 259.1875 143.664062 259.1875 Z M 161.804688 237.128906 C 162.253906 237.128906 162.625 236.761719 162.625 236.300781 C 162.625 235.847656 162.253906 235.480469 161.804688 235.480469 C 161.34375 235.480469 160.976562 235.847656 160.976562 236.300781 C 160.976562 236.761719 161.34375 237.128906 161.804688 237.128906 Z M 162.28125 267.207031 C 161.6875 267.207031 161.207031 267.683594 161.207031 268.28125 C 161.207031 268.871094 161.6875 269.355469 162.28125 269.355469 C 162.875 269.355469 163.355469 268.871094 163.355469 268.28125 C 163.355469 267.683594 162.875 267.207031 162.28125 267.207031 Z M 169.417969 249.664062 C 168.683594 249.664062 168.085938 250.257812 168.085938 250.988281 C 168.085938 251.71875 168.683594 252.320312 169.417969 252.320312 C 170.144531 252.320312 170.742188 251.71875 170.742188 250.988281 C 170.742188 250.257812 170.144531 249.664062 169.417969 249.664062 Z M 189.039062 250.957031 C 189.402344 250.957031 189.695312 250.664062 189.695312 250.300781 C 189.695312 249.933594 189.402344 249.640625 189.039062 249.640625 C 188.675781 249.640625 188.375 249.933594 188.375 250.300781 C 188.375 250.664062 188.675781 250.957031 189.039062 250.957031 Z M 191.816406 272.75 C 191.453125 272.75 191.160156 273.042969 191.160156 273.414062 C 191.160156 273.777344 191.453125 274.066406 191.816406 274.066406 C 192.179688 274.066406 192.476562 273.777344 192.476562 273.414062 C 192.476562 273.042969 192.179688 272.75 191.816406 272.75 Z M 209.136719 263.722656 C 208.679688 263.722656 208.3125 264.09375 208.3125 264.542969 C 208.3125 265.003906 208.679688 265.371094 209.136719 265.371094 C 209.589844 265.371094 209.960938 265.003906 209.960938 264.542969 C 209.960938 264.09375 209.589844 263.722656 209.136719 263.722656 Z M 227.378906 255.726562 C 226.785156 255.726562 226.304688 256.203125 226.304688 256.800781 C 226.304688 257.394531 226.785156 257.878906 227.378906 257.878906 C 227.972656 257.878906 228.453125 257.394531 228.453125 256.800781 C 228.453125 256.203125 227.972656 255.726562 227.378906 255.726562 Z M 237.679688 273.820312 C 234.59375 273.820312 232.085938 271.308594 232.085938 268.222656 C 232.085938 265.136719 234.59375 262.625 237.679688 262.625 C 240.769531 262.625 243.273438 265.136719 243.273438 268.222656 C 243.273438 271.308594 240.769531 273.820312 237.679688 273.820312 Z M 225.335938 260.21875 C 222.832031 260.21875 220.804688 258.1875 220.804688 255.679688 C 220.804688 253.179688 222.832031 251.148438 225.335938 251.148438 C 227.835938 251.148438 229.867188 253.179688 229.867188 255.679688 C 229.867188 258.1875 227.835938 260.21875 225.335938 260.21875 Z M 207.574219 267.160156 C 205.65625 267.160156 204.097656 265.609375 204.097656 263.6875 C 204.097656 261.773438 205.65625 260.21875 207.574219 260.21875 C 209.488281 260.21875 211.050781 261.773438 211.050781 263.6875 C 211.050781 265.609375 209.488281 267.160156 207.574219 267.160156 Z M 190.566406 275.5 C 189.035156 275.5 187.785156 274.257812 187.785156 272.722656 C 187.785156 271.191406 189.035156 269.949219 190.566406 269.949219 C 192.101562 269.949219 193.34375 271.191406 193.34375 272.722656 C 193.34375 274.257812 192.101562 275.5 190.566406 275.5 Z M 185.007812 249.613281 C 185.007812 248.078125 186.25 246.835938 187.785156 246.835938 C 189.320312 246.835938 190.566406 248.078125 190.566406 249.613281 C 190.566406 251.148438 189.320312 252.390625 187.785156 252.390625 C 186.25 252.390625 185.007812 251.148438 185.007812 249.613281 Z M 166.898438 255.210938 C 163.804688 255.210938 161.300781 252.699219 161.300781 249.613281 C 161.300781 246.527344 163.804688 244.015625 166.898438 244.015625 C 169.984375 244.015625 172.492188 246.527344 172.492188 249.613281 C 172.492188 252.699219 169.984375 255.210938 166.898438 255.210938 Z M 160.238281 271.691406 C 157.734375 271.691406 155.703125 269.667969 155.703125 267.160156 C 155.703125 264.65625 157.734375 262.625 160.238281 262.625 C 162.738281 262.625 164.769531 264.65625 164.769531 267.160156 C 164.769531 269.667969 162.738281 271.691406 160.238281 271.691406 Z M 160.238281 231.980469 C 162.152344 231.980469 163.707031 233.53125 163.707031 235.449219 C 163.707031 237.363281 162.152344 238.925781 160.238281 238.925781 C 158.320312 238.925781 156.761719 237.363281 156.761719 235.449219 C 156.761719 233.53125 158.320312 231.980469 160.238281 231.980469 Z M 142.105469 262.625 C 140.183594 262.625 138.628906 261.074219 138.628906 259.15625 C 138.628906 257.242188 140.183594 255.679688 142.105469 255.679688 C 144.019531 255.679688 145.574219 257.242188 145.574219 259.15625 C 145.574219 261.074219 144.019531 262.625 142.105469 262.625 Z M 256.761719 273.890625 L 237.210938 241.9375 C 221.984375 247.609375 200.316406 245.882812 181.464844 231.21875 C 179.589844 229.761719 177.769531 228.496094 176.007812 227.394531 C 164.6875 220.292969 155.710938 219.941406 150.917969 220.511719 L 150.023438 221.96875 L 118.261719 273.890625 C 117.292969 275.480469 117.257812 277.328125 118.171875 278.957031 C 119.082031 280.582031 120.675781 281.515625 122.539062 281.515625 L 252.484375 281.515625 C 254.347656 281.515625 255.941406 280.582031 256.851562 278.957031 C 257.765625 277.328125 257.730469 275.480469 256.761719 273.890625 Z M 161.804688 235.480469 C 161.34375 235.480469 160.976562 235.847656 160.976562 236.300781 C 160.976562 236.761719 161.34375 237.128906 161.804688 237.128906 C 162.253906 237.128906 162.625 236.761719 162.625 236.300781 C 162.625 235.847656 162.253906 235.480469 161.804688 235.480469 Z M 162.28125 267.207031 C 161.6875 267.207031 161.207031 267.683594 161.207031 268.28125 C 161.207031 268.871094 161.6875 269.355469 162.28125 269.355469 C 162.875 269.355469 163.355469 268.871094 163.355469 268.28125 C 163.355469 267.683594 162.875 267.207031 162.28125 267.207031 Z M 169.417969 249.664062 C 168.683594 249.664062 168.085938 250.257812 168.085938 250.988281 C 168.085938 251.71875 168.683594 252.320312 169.417969 252.320312 C 170.144531 252.320312 170.742188 251.71875 170.742188 250.988281 C 170.742188 250.257812 170.144531 249.664062 169.417969 249.664062 Z M 189.039062 249.640625 C 188.675781 249.640625 188.375 249.933594 188.375 250.300781 C 188.375 250.664062 188.675781 250.957031 189.039062 250.957031 C 189.402344 250.957031 189.695312 250.664062 189.695312 250.300781 C 189.695312 249.933594 189.402344 249.640625 189.039062 249.640625 Z M 191.816406 272.75 C 191.453125 272.75 191.160156 273.042969 191.160156 273.414062 C 191.160156 273.777344 191.453125 274.066406 191.816406 274.066406 C 192.179688 274.066406 192.476562 273.777344 192.476562 273.414062 C 192.476562 273.042969 192.179688 272.75 191.816406 272.75 Z M 209.136719 263.722656 C 208.679688 263.722656 208.3125 264.09375 208.3125 264.542969 C 208.3125 265.003906 208.679688 265.371094 209.136719 265.371094 C 209.589844 265.371094 209.960938 265.003906 209.960938 264.542969 C 209.960938 264.09375 209.589844 263.722656 209.136719 263.722656 Z M 227.378906 255.726562 C 226.785156 255.726562 226.304688 256.203125 226.304688 256.800781 C 226.304688 257.394531 226.785156 257.878906 227.378906 257.878906 C 227.972656 257.878906 228.453125 257.394531 228.453125 256.800781 C 228.453125 256.203125 227.972656 255.726562 227.378906 255.726562 Z M 227.378906 255.726562 C 226.785156 255.726562 226.304688 256.203125 226.304688 256.800781 C 226.304688 257.394531 226.785156 257.878906 227.378906 257.878906 C 227.972656 257.878906 228.453125 257.394531 228.453125 256.800781 C 228.453125 256.203125 227.972656 255.726562 227.378906 255.726562 Z M 209.136719 263.722656 C 208.679688 263.722656 208.3125 264.09375 208.3125 264.542969 C 208.3125 265.003906 208.679688 265.371094 209.136719 265.371094 C 209.589844 265.371094 209.960938 265.003906 209.960938 264.542969 C 209.960938 264.09375 209.589844 263.722656 209.136719 263.722656 Z M 191.816406 272.75 C 191.453125 272.75 191.160156 273.042969 191.160156 273.414062 C 191.160156 273.777344 191.453125 274.066406 191.816406 274.066406 C 192.179688 274.066406 192.476562 273.777344 192.476562 273.414062 C 192.476562 273.042969 192.179688 272.75 191.816406 272.75 Z M 189.039062 249.640625 C 188.675781 249.640625 188.375 249.933594 188.375 250.300781 C 188.375 250.664062 188.675781 250.957031 189.039062 250.957031 C 189.402344 250.957031 189.695312 250.664062 189.695312 250.300781 C 189.695312 249.933594 189.402344 249.640625 189.039062 249.640625 Z M 169.417969 249.664062 C 168.683594 249.664062 168.085938 250.257812 168.085938 250.988281 C 168.085938 251.71875 168.683594 252.320312 169.417969 252.320312 C 170.144531 252.320312 170.742188 251.71875 170.742188 250.988281 C 170.742188 250.257812 170.144531 249.664062 169.417969 249.664062 Z M 161.804688 235.480469 C 161.34375 235.480469 160.976562 235.847656 160.976562 236.300781 C 160.976562 236.761719 161.34375 237.128906 161.804688 237.128906 C 162.253906 237.128906 162.625 236.761719 162.625 236.300781 C 162.625 235.847656 162.253906 235.480469 161.804688 235.480469 Z M 162.28125 267.207031 C 161.6875 267.207031 161.207031 267.683594 161.207031 268.28125 C 161.207031 268.871094 161.6875 269.355469 162.28125 269.355469 C 162.875 269.355469 163.355469 268.871094 163.355469 268.28125 C 163.355469 267.683594 162.875 267.207031 162.28125 267.207031 Z M 162.28125 267.207031 C 161.6875 267.207031 161.207031 267.683594 161.207031 268.28125 C 161.207031 268.871094 161.6875 269.355469 162.28125 269.355469 C 162.875 269.355469 163.355469 268.871094 163.355469 268.28125 C 163.355469 267.683594 162.875 267.207031 162.28125 267.207031 Z M 169.417969 249.664062 C 168.683594 249.664062 168.085938 250.257812 168.085938 250.988281 C 168.085938 251.71875 168.683594 252.320312 169.417969 252.320312 C 170.144531 252.320312 170.742188 251.71875 170.742188 250.988281 C 170.742188 250.257812 170.144531 249.664062 169.417969 249.664062 Z M 191.816406 272.75 C 191.453125 272.75 191.160156 273.042969 191.160156 273.414062 C 191.160156 273.777344 191.453125 274.066406 191.816406 274.066406 C 192.179688 274.066406 192.476562 273.777344 192.476562 273.414062 C 192.476562 273.042969 192.179688 272.75 191.816406 272.75 Z M 209.136719 263.722656 C 208.679688 263.722656 208.3125 264.09375 208.3125 264.542969 C 208.3125 265.003906 208.679688 265.371094 209.136719 265.371094 C 209.589844 265.371094 209.960938 265.003906 209.960938 264.542969 C 209.960938 264.09375 209.589844 263.722656 209.136719 263.722656 Z M 227.378906 255.726562 C 226.785156 255.726562 226.304688 256.203125 226.304688 256.800781 C 226.304688 257.394531 226.785156 257.878906 227.378906 257.878906 C 227.972656 257.878906 228.453125 257.394531 228.453125 256.800781 C 228.453125 256.203125 227.972656 255.726562 227.378906 255.726562 Z M 227.378906 255.726562 C 226.785156 255.726562 226.304688 256.203125 226.304688 256.800781 C 226.304688 257.394531 226.785156 257.878906 227.378906 257.878906 C 227.972656 257.878906 228.453125 257.394531 228.453125 256.800781 C 228.453125 256.203125 227.972656 255.726562 227.378906 255.726562 Z M 209.136719 263.722656 C 208.679688 263.722656 208.3125 264.09375 208.3125 264.542969 C 208.3125 265.003906 208.679688 265.371094 209.136719 265.371094 C 209.589844 265.371094 209.960938 265.003906 209.960938 264.542969 C 209.960938 264.09375 209.589844 263.722656 209.136719 263.722656 Z M 191.816406 272.75 C 191.453125 272.75 191.160156 273.042969 191.160156 273.414062 C 191.160156 273.777344 191.453125 274.066406 191.816406 274.066406 C 192.179688 274.066406 192.476562 273.777344 192.476562 273.414062 C 192.476562 273.042969 192.179688 272.75 191.816406 272.75 Z M 169.417969 249.664062 C 168.683594 249.664062 168.085938 250.257812 168.085938 250.988281 C 168.085938 251.71875 168.683594 252.320312 169.417969 252.320312 C 170.144531 252.320312 170.742188 251.71875 170.742188 250.988281 C 170.742188 250.257812 170.144531 249.664062 169.417969 249.664062 Z M 162.28125 267.207031 C 161.6875 267.207031 161.207031 267.683594 161.207031 268.28125 C 161.207031 268.871094 161.6875 269.355469 162.28125 269.355469 C 162.875 269.355469 163.355469 268.871094 163.355469 268.28125 C 163.355469 267.683594 162.875 267.207031 162.28125 267.207031 Z M 191.816406 272.75 C 191.453125 272.75 191.160156 273.042969 191.160156 273.414062 C 191.160156 273.777344 191.453125 274.066406 191.816406 274.066406 C 192.179688 274.066406 192.476562 273.777344 192.476562 273.414062 C 192.476562 273.042969 192.179688 272.75 191.816406 272.75 Z M 209.136719 263.722656 C 208.679688 263.722656 208.3125 264.09375 208.3125 264.542969 C 208.3125 265.003906 208.679688 265.371094 209.136719 265.371094 C 209.589844 265.371094 209.960938 265.003906 209.960938 264.542969 C 209.960938 264.09375 209.589844 263.722656 209.136719 263.722656 Z M 227.378906 255.726562 C 226.785156 255.726562 226.304688 256.203125 226.304688 256.800781 C 226.304688 257.394531 226.785156 257.878906 227.378906 257.878906 C 227.972656 257.878906 228.453125 257.394531 228.453125 256.800781 C 228.453125 256.203125 227.972656 255.726562 227.378906 255.726562 Z M 227.378906 255.726562 C 226.785156 255.726562 226.304688 256.203125 226.304688 256.800781 C 226.304688 257.394531 226.785156 257.878906 227.378906 257.878906 C 227.972656 257.878906 228.453125 257.394531 228.453125 256.800781 C 228.453125 256.203125 227.972656 255.726562 227.378906 255.726562 Z M 209.136719 263.722656 C 208.679688 263.722656 208.3125 264.09375 208.3125 264.542969 C 208.3125 265.003906 208.679688 265.371094 209.136719 265.371094 C 209.589844 265.371094 209.960938 265.003906 209.960938 264.542969 C 209.960938 264.09375 209.589844 263.722656 209.136719 263.722656 Z M 191.816406 272.75 C 191.453125 272.75 191.160156 273.042969 191.160156 273.414062 C 191.160156 273.777344 191.453125 274.066406 191.816406 274.066406 C 192.179688 274.066406 192.476562 273.777344 192.476562 273.414062 C 192.476562 273.042969 192.179688 272.75 191.816406 272.75 Z M 227.378906 255.726562 C 226.785156 255.726562 226.304688 256.203125 226.304688 256.800781 C 226.304688 257.394531 226.785156 257.878906 227.378906 257.878906 C 227.972656 257.878906 228.453125 257.394531 228.453125 256.800781 C 228.453125 256.203125 227.972656 255.726562 227.378906 255.726562 Z M 227.378906 255.726562 C 226.785156 255.726562 226.304688 256.203125 226.304688 256.800781 C 226.304688 257.394531 226.785156 257.878906 227.378906 257.878906 C 227.972656 257.878906 228.453125 257.394531 228.453125 256.800781 C 228.453125 256.203125 227.972656 255.726562 227.378906 255.726562 " fill-opacity="1" fill-rule="nonzero"/><path fill="#8c52ff" d="M 188.792969 90.21875 C 188.058594 90.21875 187.460938 89.625 187.460938 88.894531 C 187.460938 88.15625 188.058594 87.5625 188.792969 87.5625 C 189.523438 87.5625 190.117188 88.15625 190.117188 88.894531 C 190.117188 89.625 189.523438 90.21875 188.792969 90.21875 Z M 186.269531 81.917969 C 183.179688 81.917969 180.671875 84.425781 180.671875 87.511719 C 180.671875 90.601562 183.179688 93.109375 186.269531 93.109375 C 189.355469 93.109375 191.867188 90.601562 191.867188 87.511719 C 191.867188 84.425781 189.355469 81.917969 186.269531 81.917969 " fill-opacity="1" fill-rule="nonzero"/><path fill="#8c52ff" d="M 208.503906 66.472656 C 207.578125 66.472656 206.820312 65.722656 206.820312 64.796875 C 206.820312 63.859375 207.578125 63.109375 208.503906 63.109375 C 209.429688 63.109375 210.179688 63.859375 210.179688 64.796875 C 210.179688 65.722656 209.429688 66.472656 208.503906 66.472656 Z M 205.3125 55.960938 C 201.40625 55.960938 198.230469 59.140625 198.230469 63.046875 C 198.230469 66.953125 201.40625 70.128906 205.3125 70.128906 C 209.222656 70.128906 212.394531 66.953125 212.394531 63.046875 C 212.394531 59.140625 209.222656 55.960938 205.3125 55.960938 " fill-opacity="1" fill-rule="nonzero"/><path fill="#8c52ff" d="M 176.433594 59.152344 C 174.695312 59.152344 173.273438 57.746094 173.273438 56.007812 C 173.273438 54.25 174.695312 52.847656 176.433594 52.847656 C 178.171875 52.847656 179.578125 54.25 179.578125 56.007812 C 179.578125 57.746094 178.171875 59.152344 176.433594 59.152344 Z M 170.445312 39.433594 C 163.113281 39.433594 157.15625 45.390625 157.15625 52.722656 C 157.15625 60.058594 163.113281 66.015625 170.445312 66.015625 C 177.78125 66.015625 183.738281 60.058594 183.738281 52.722656 C 183.738281 45.390625 177.78125 39.433594 170.445312 39.433594 " fill-opacity="1" fill-rule="nonzero"/><g clip-path="url(#361cb3cb43)"><path fill="#8c52ff" d="M 205.449219 37.558594 C 204.292969 37.558594 203.351562 36.625 203.351562 35.46875 C 203.351562 34.304688 204.292969 33.371094 205.449219 33.371094 C 206.605469 33.371094 207.539062 34.304688 207.539062 35.46875 C 207.539062 36.625 206.605469 37.558594 205.449219 37.558594 Z M 201.46875 24.453125 C 196.597656 24.453125 192.632812 28.414062 192.632812 33.289062 C 192.632812 38.164062 196.597656 42.121094 201.46875 42.121094 C 206.347656 42.121094 210.304688 38.164062 210.304688 33.289062 C 210.304688 28.414062 206.347656 24.453125 201.46875 24.453125 " fill-opacity="1" fill-rule="nonzero"/></g><g fill="#000000" fill-opacity="1"><g transform="translate(39.246096, 330.949987)"><g><path d="M 8.15625 -22.96875 C 12.34375 -22.96875 15.503906 -22.007812 17.640625 -20.09375 C 19.785156 -18.175781 20.859375 -15.316406 20.859375 -11.515625 C 20.859375 -7.484375 19.785156 -4.554688 17.640625 -2.734375 C 15.503906 -0.910156 12.363281 0 8.21875 0 L 2.625 0 L 2.625 -22.96875 Z M 8.984375 -4.28125 C 11.398438 -4.28125 13.25 -4.878906 14.53125 -6.078125 C 15.8125 -7.273438 16.453125 -9.117188 16.453125 -11.609375 C 16.453125 -13.128906 16.128906 -14.414062 15.484375 -15.46875 C 14.847656 -16.53125 13.929688 -17.332031 12.734375 -17.875 C 11.535156 -18.414062 10.117188 -18.6875 8.484375 -18.6875 L 7.015625 -18.6875 L 7.015625 -4.28125 Z M 8.984375 -4.28125 "/></g></g></g><g fill="#000000" fill-opacity="1"><g transform="translate(61.576607, 330.949987)"><g><path d="M 2.625 -22.96875 L 15.171875 -22.96875 L 15.171875 -18.71875 L 7.015625 -18.71875 L 7.015625 -14.53125 L 15.171875 -14.53125 L 15.171875 -10.375 L 7.015625 -10.375 L 7.015625 -4.28125 L 15.171875 -4.28125 L 15.171875 0 L 2.625 0 Z M 2.625 -22.96875 "/></g></g></g><g fill="#000000" fill-opacity="1"><g transform="translate(78.18053, 330.949987)"><g><path d="M 13.65625 0.578125 C 11.289062 0.578125 9.1875 0.0625 7.34375 -0.96875 C 5.5 -2.007812 4.0625 -3.445312 3.03125 -5.28125 C 2.007812 -7.113281 1.5 -9.191406 1.5 -11.515625 C 1.5 -13.867188 2.050781 -15.960938 3.15625 -17.796875 C 4.269531 -19.628906 5.757812 -21.046875 7.625 -22.046875 C 9.5 -23.046875 11.535156 -23.546875 13.734375 -23.546875 C 15.609375 -23.546875 17.414062 -23.144531 19.15625 -22.34375 C 20.894531 -21.550781 22.378906 -20.414062 23.609375 -18.9375 L 20.546875 -16 C 19.492188 -17.101562 18.398438 -17.9375 17.265625 -18.5 C 16.140625 -19.070312 14.925781 -19.359375 13.625 -19.359375 C 12.195312 -19.359375 10.882812 -19.015625 9.6875 -18.328125 C 8.5 -17.648438 7.550781 -16.710938 6.84375 -15.515625 C 6.144531 -14.328125 5.796875 -12.992188 5.796875 -11.515625 C 5.796875 -9.960938 6.132812 -8.585938 6.8125 -7.390625 C 7.5 -6.191406 8.441406 -5.257812 9.640625 -4.59375 C 10.847656 -3.9375 12.210938 -3.609375 13.734375 -3.609375 C 15.097656 -3.609375 16.304688 -3.875 17.359375 -4.40625 C 18.410156 -4.945312 19.515625 -5.789062 20.671875 -6.9375 L 23.640625 -3.84375 C 22.578125 -2.789062 21.5625 -1.953125 20.59375 -1.328125 C 19.625 -0.703125 18.578125 -0.226562 17.453125 0.09375 C 16.335938 0.414062 15.070312 0.578125 13.65625 0.578125 Z M 13.65625 0.578125 "/></g></g></g><g fill="#000000" fill-opacity="1"><g transform="translate(103.134393, 330.949987)"><g><path d="M 10.265625 0.546875 C 8.566406 0.546875 7.132812 0.203125 5.96875 -0.484375 C 4.800781 -1.179688 3.925781 -2.164062 3.34375 -3.4375 C 2.757812 -4.707031 2.46875 -6.207031 2.46875 -7.9375 L 2.46875 -22.96875 L 6.84375 -22.96875 L 6.84375 -7.421875 C 6.84375 -6.179688 7.128906 -5.238281 7.703125 -4.59375 C 8.285156 -3.957031 9.109375 -3.640625 10.171875 -3.640625 C 11.066406 -3.640625 11.769531 -3.816406 12.28125 -4.171875 C 12.800781 -4.523438 13.15625 -5.015625 13.34375 -5.640625 C 13.53125 -6.273438 13.625 -7.070312 13.625 -8.03125 L 13.625 -22.96875 L 18.015625 -22.96875 L 18.015625 -7.546875 C 18.015625 -5.929688 17.703125 -4.507812 17.078125 -3.28125 C 16.460938 -2.050781 15.570312 -1.101562 14.40625 -0.4375 C 13.25 0.21875 11.867188 0.546875 10.265625 0.546875 Z M 10.265625 0.546875 "/></g></g></g><g fill="#000000" fill-opacity="1"><g transform="translate(123.60936, 330.949987)"><g><path d="M 8.515625 -22.96875 C 10.960938 -22.96875 12.875 -22.40625 14.25 -21.28125 C 15.625 -20.164062 16.3125 -18.507812 16.3125 -16.3125 C 16.3125 -14.820312 15.9375 -13.566406 15.1875 -12.546875 C 14.445312 -11.523438 13.351562 -10.742188 11.90625 -10.203125 L 17.34375 0 L 12.578125 0 L 7.421875 -9.734375 L 7.015625 -9.734375 L 7.015625 0 L 2.625 0 L 2.625 -22.96875 Z M 9.03125 -13.984375 C 10.03125 -13.984375 10.78125 -14.179688 11.28125 -14.578125 C 11.78125 -14.972656 12.03125 -15.566406 12.03125 -16.359375 C 12.03125 -17.117188 11.765625 -17.695312 11.234375 -18.09375 C 10.703125 -18.488281 9.921875 -18.6875 8.890625 -18.6875 L 7.015625 -18.6875 L 7.015625 -13.984375 Z M 9.03125 -13.984375 "/></g></g></g><g fill="#000000" fill-opacity="1"><g transform="translate(141.876864, 330.949987)"><g><path d="M 2.625 -22.96875 L 15.171875 -22.96875 L 15.171875 -18.71875 L 7.015625 -18.71875 L 7.015625 -14.53125 L 15.171875 -14.53125 L 15.171875 -10.375 L 7.015625 -10.375 L 7.015625 -4.28125 L 15.171875 -4.28125 L 15.171875 0 L 2.625 0 Z M 2.625 -22.96875 "/></g></g></g><g fill="#000000" fill-opacity="1"><g transform="translate(158.480786, 330.949987)"><g/></g></g><g fill="#000000" fill-opacity="1"><g transform="translate(167.43858, 330.949987)"><g><path d="M 8.359375 0.578125 C 6.691406 0.578125 5.253906 0.164062 4.046875 -0.65625 C 2.835938 -1.476562 1.804688 -2.734375 0.953125 -4.421875 L 4.640625 -6.625 C 5.171875 -5.625 5.742188 -4.867188 6.359375 -4.359375 C 6.984375 -3.859375 7.679688 -3.609375 8.453125 -3.609375 C 8.941406 -3.609375 9.390625 -3.703125 9.796875 -3.890625 C 10.203125 -4.085938 10.519531 -4.351562 10.75 -4.6875 C 10.988281 -5.019531 11.109375 -5.378906 11.109375 -5.765625 C 11.109375 -6.171875 11.023438 -6.53125 10.859375 -6.84375 C 10.703125 -7.164062 10.472656 -7.476562 10.171875 -7.78125 C 9.878906 -8.09375 9.429688 -8.492188 8.828125 -8.984375 C 7.078125 -10.460938 5.765625 -11.617188 4.890625 -12.453125 C 4.015625 -13.285156 3.320312 -14.128906 2.8125 -14.984375 C 2.300781 -15.847656 2.046875 -16.773438 2.046875 -17.765625 C 2.046875 -18.828125 2.328125 -19.800781 2.890625 -20.6875 C 3.460938 -21.570312 4.234375 -22.269531 5.203125 -22.78125 C 6.171875 -23.289062 7.222656 -23.546875 8.359375 -23.546875 C 9.703125 -23.546875 10.890625 -23.226562 11.921875 -22.59375 C 12.953125 -21.96875 13.984375 -21.0625 15.015625 -19.875 L 11.84375 -17.1875 C 11.195312 -17.90625 10.59375 -18.445312 10.03125 -18.8125 C 9.46875 -19.175781 8.882812 -19.359375 8.28125 -19.359375 C 7.707031 -19.359375 7.238281 -19.207031 6.875 -18.90625 C 6.519531 -18.613281 6.34375 -18.234375 6.34375 -17.765625 C 6.34375 -17.421875 6.453125 -17.085938 6.671875 -16.765625 C 6.898438 -16.441406 7.253906 -16.066406 7.734375 -15.640625 C 8.210938 -15.222656 8.992188 -14.578125 10.078125 -13.703125 C 11.378906 -12.648438 12.375 -11.78125 13.0625 -11.09375 C 13.757812 -10.414062 14.320312 -9.65625 14.75 -8.8125 C 15.175781 -7.96875 15.390625 -7.015625 15.390625 -5.953125 C 15.390625 -4.691406 15.085938 -3.566406 14.484375 -2.578125 C 13.890625 -1.585938 13.0625 -0.8125 12 -0.25 C 10.9375 0.300781 9.722656 0.578125 8.359375 0.578125 Z M 8.359375 0.578125 "/></g></g></g><g fill="#000000" fill-opacity="1"><g transform="translate(184.074489, 330.949987)"><g><path d="M 13.53125 0.546875 C 11.289062 0.546875 9.253906 0.0078125 7.421875 -1.0625 C 5.585938 -2.144531 4.140625 -3.609375 3.078125 -5.453125 C 2.023438 -7.296875 1.5 -9.316406 1.5 -11.515625 C 1.5 -13.734375 2.035156 -15.765625 3.109375 -17.609375 C 4.191406 -19.460938 5.648438 -20.914062 7.484375 -21.96875 C 9.316406 -23.019531 11.3125 -23.546875 13.46875 -23.546875 C 15.582031 -23.546875 17.550781 -23.019531 19.375 -21.96875 C 21.195312 -20.914062 22.65625 -19.460938 23.75 -17.609375 C 24.851562 -15.765625 25.40625 -13.703125 25.40625 -11.421875 C 25.40625 -9.203125 24.875 -7.179688 23.8125 -5.359375 C 22.757812 -3.535156 21.328125 -2.09375 19.515625 -1.03125 C 17.703125 0.0195312 15.707031 0.546875 13.53125 0.546875 Z M 13.5 -3.640625 C 14.863281 -3.640625 16.113281 -3.988281 17.25 -4.6875 C 18.394531 -5.382812 19.300781 -6.328125 19.96875 -7.515625 C 20.644531 -8.710938 20.984375 -10.023438 20.984375 -11.453125 C 20.984375 -12.859375 20.660156 -14.164062 20.015625 -15.375 C 19.367188 -16.582031 18.46875 -17.546875 17.3125 -18.265625 C 16.15625 -18.992188 14.863281 -19.359375 13.4375 -19.359375 C 12.070312 -19.359375 10.8125 -19.019531 9.65625 -18.34375 C 8.507812 -17.675781 7.597656 -16.738281 6.921875 -15.53125 C 6.253906 -14.332031 5.921875 -12.960938 5.921875 -11.421875 C 5.921875 -9.910156 6.265625 -8.5625 6.953125 -7.375 C 7.648438 -6.1875 8.570312 -5.265625 9.71875 -4.609375 C 10.875 -3.960938 12.132812 -3.640625 13.5 -3.640625 Z M 13.5 -3.640625 "/></g></g></g><g fill="#000000" fill-opacity="1"><g transform="translate(210.947881, 330.949987)"><g><path d="M 7.015625 -22.96875 L 7.015625 -4.15625 L 13.375 -4.15625 L 13.375 0 L 2.625 0 L 2.625 -22.96875 Z M 7.015625 -22.96875 "/></g></g></g><g fill="#000000" fill-opacity="1"><g transform="translate(225.024422, 330.949987)"><g><path d="M 10.265625 0.546875 C 8.566406 0.546875 7.132812 0.203125 5.96875 -0.484375 C 4.800781 -1.179688 3.925781 -2.164062 3.34375 -3.4375 C 2.757812 -4.707031 2.46875 -6.207031 2.46875 -7.9375 L 2.46875 -22.96875 L 6.84375 -22.96875 L 6.84375 -7.421875 C 6.84375 -6.179688 7.128906 -5.238281 7.703125 -4.59375 C 8.285156 -3.957031 9.109375 -3.640625 10.171875 -3.640625 C 11.066406 -3.640625 11.769531 -3.816406 12.28125 -4.171875 C 12.800781 -4.523438 13.15625 -5.015625 13.34375 -5.640625 C 13.53125 -6.273438 13.625 -7.070312 13.625 -8.03125 L 13.625 -22.96875 L 18.015625 -22.96875 L 18.015625 -7.546875 C 18.015625 -5.929688 17.703125 -4.507812 17.078125 -3.28125 C 16.460938 -2.050781 15.570312 -1.101562 14.40625 -0.4375 C 13.25 0.21875 11.867188 0.546875 10.265625 0.546875 Z M 10.265625 0.546875 "/></g></g></g><g fill="#000000" fill-opacity="1"><g transform="translate(245.499377, 330.949987)"><g><path d="M 4.453125 -18.6875 L 0.359375 -18.6875 L 0.359375 -22.96875 L 13.0625 -22.96875 L 13.0625 -18.6875 L 8.828125 -18.6875 L 8.828125 0 L 4.453125 0 Z M 4.453125 -18.6875 "/></g></g></g><g fill="#000000" fill-opacity="1"><g transform="translate(258.936068, 330.949987)"><g><path d="M 2.625 -22.96875 L 7.015625 -22.96875 L 7.015625 0 L 2.625 0 Z M 2.625 -22.96875 "/></g></g></g><g fill="#000000" fill-opacity="1"><g transform="translate(268.565698, 330.949987)"><g><path d="M 13.53125 0.546875 C 11.289062 0.546875 9.253906 0.0078125 7.421875 -1.0625 C 5.585938 -2.144531 4.140625 -3.609375 3.078125 -5.453125 C 2.023438 -7.296875 1.5 -9.316406 1.5 -11.515625 C 1.5 -13.734375 2.035156 -15.765625 3.109375 -17.609375 C 4.191406 -19.460938 5.648438 -20.914062 7.484375 -21.96875 C 9.316406 -23.019531 11.3125 -23.546875 13.46875 -23.546875 C 15.582031 -23.546875 17.550781 -23.019531 19.375 -21.96875 C 21.195312 -20.914062 22.65625 -19.460938 23.75 -17.609375 C 24.851562 -15.765625 25.40625 -13.703125 25.40625 -11.421875 C 25.40625 -9.203125 24.875 -7.179688 23.8125 -5.359375 C 22.757812 -3.535156 21.328125 -2.09375 19.515625 -1.03125 C 17.703125 0.0195312 15.707031 0.546875 13.53125 0.546875 Z M 13.5 -3.640625 C 14.863281 -3.640625 16.113281 -3.988281 17.25 -4.6875 C 18.394531 -5.382812 19.300781 -6.328125 19.96875 -7.515625 C 20.644531 -8.710938 20.984375 -10.023438 20.984375 -11.453125 C 20.984375 -12.859375 20.660156 -14.164062 20.015625 -15.375 C 19.367188 -16.582031 18.46875 -17.546875 17.3125 -18.265625 C 16.15625 -18.992188 14.863281 -19.359375 13.4375 -19.359375 C 12.070312 -19.359375 10.8125 -19.019531 9.65625 -18.34375 C 8.507812 -17.675781 7.597656 -16.738281 6.921875 -15.53125 C 6.253906 -14.332031 5.921875 -12.960938 5.921875 -11.421875 C 5.921875 -9.910156 6.265625 -8.5625 6.953125 -7.375 C 7.648438 -6.1875 8.570312 -5.265625 9.71875 -4.609375 C 10.875 -3.960938 12.132812 -3.640625 13.5 -3.640625 Z M 13.5 -3.640625 "/></g></g></g><g fill="#000000" fill-opacity="1"><g transform="translate(295.439101, 330.949987)"><g><path d="M 16.671875 -22.96875 L 21.0625 -22.96875 L 21.0625 0 L 16.828125 0 L 7.015625 -15.046875 L 7.015625 0 L 2.625 0 L 2.625 -22.96875 L 6.8125 -22.96875 L 16.671875 -7.90625 Z M 16.671875 -22.96875 "/></g></g></g><g fill="#000000" fill-opacity="1"><g transform="translate(319.113286, 330.949987)"><g><path d="M 8.359375 0.578125 C 6.691406 0.578125 5.253906 0.164062 4.046875 -0.65625 C 2.835938 -1.476562 1.804688 -2.734375 0.953125 -4.421875 L 4.640625 -6.625 C 5.171875 -5.625 5.742188 -4.867188 6.359375 -4.359375 C 6.984375 -3.859375 7.679688 -3.609375 8.453125 -3.609375 C 8.941406 -3.609375 9.390625 -3.703125 9.796875 -3.890625 C 10.203125 -4.085938 10.519531 -4.351562 10.75 -4.6875 C 10.988281 -5.019531 11.109375 -5.378906 11.109375 -5.765625 C 11.109375 -6.171875 11.023438 -6.53125 10.859375 -6.84375 C 10.703125 -7.164062 10.472656 -7.476562 10.171875 -7.78125 C 9.878906 -8.09375 9.429688 -8.492188 8.828125 -8.984375 C 7.078125 -10.460938 5.765625 -11.617188 4.890625 -12.453125 C 4.015625 -13.285156 3.320312 -14.128906 2.8125 -14.984375 C 2.300781 -15.847656 2.046875 -16.773438 2.046875 -17.765625 C 2.046875 -18.828125 2.328125 -19.800781 2.890625 -20.6875 C 3.460938 -21.570312 4.234375 -22.269531 5.203125 -22.78125 C 6.171875 -23.289062 7.222656 -23.546875 8.359375 -23.546875 C 9.703125 -23.546875 10.890625 -23.226562 11.921875 -22.59375 C 12.953125 -21.96875 13.984375 -21.0625 15.015625 -19.875 L 11.84375 -17.1875 C 11.195312 -17.90625 10.59375 -18.445312 10.03125 -18.8125 C 9.46875 -19.175781 8.882812 -19.359375 8.28125 -19.359375 C 7.707031 -19.359375 7.238281 -19.207031 6.875 -18.90625 C 6.519531 -18.613281 6.34375 -18.234375 6.34375 -17.765625 C 6.34375 -17.421875 6.453125 -17.085938 6.671875 -16.765625 C 6.898438 -16.441406 7.253906 -16.066406 7.734375 -15.640625 C 8.210938 -15.222656 8.992188 -14.578125 10.078125 -13.703125 C 11.378906 -12.648438 12.375 -11.78125 13.0625 -11.09375 C 13.757812 -10.414062 14.320312 -9.65625 14.75 -8.8125 C 15.175781 -7.96875 15.390625 -7.015625 15.390625 -5.953125 C 15.390625 -4.691406 15.085938 -3.566406 14.484375 -2.578125 C 13.890625 -1.585938 13.0625 -0.8125 12 -0.25 C 10.9375 0.300781 9.722656 0.578125 8.359375 0.578125 Z M 8.359375 0.578125 "/></g></g></g></svg>